HIERARCHY
ROOT Hips
{
	OFFSET 0.000000 0.000000 0.000000 
	CHANNELS 6 Xposition Yposition Zposition Yrotation Zrotation Xrotation 
	JOINT Lumbar
	{
		OFFSET 0.000000 0.000000 0.000000 
		CHANNELS 3 Zrotation Xrotation Yrotation
		JOINT Neck
		{
			OFFSET 0.000000 0.445665 0.000000 
			CHANNELS 3 Zrotation Xrotation Yrotation
			End Site
			{
				OFFSET 0.000000 0.227535 0.000000 
			}
		}
		JOINT RightShoulder
		{
			OFFSET 0.019635 0.377685 0.194865 
			CHANNELS 3 Zrotation Xrotation Yrotation
			JOINT RightElbow
			{
				OFFSET 0.000000 -0.243375 0.000000 
				CHANNELS 2 Zrotation Yrotation
				JOINT RightWrist
				{
					OFFSET 0.000000 -0.264825 0.000000 
					CHANNELS 2 Zrotation Xrotation
					End Site
					{
						OFFSET 0.006600 -0.176220 0.000990 
					}
				}
			}
		}
		JOINT LeftShoulder
		{
			OFFSET 0.019635 0.377685 -0.194865 
			CHANNELS 3 Zrotation Xrotation Yrotation
			JOINT LeftElbow
			{
				OFFSET 0.000000 -0.243375 0.000000 
				CHANNELS 2 Zrotation Yrotation
				JOINT LeftWrist
				{
					OFFSET 0.000000 -0.264825 0.000000 
					CHANNELS 2 Zrotation Xrotation
					End Site
					{
						OFFSET 0.006600 -0.176220 -0.000990 
					}
				}
			}
		}
	}
	JOINT RightHip
	{
		OFFSET 0.052140 -0.069960 0.075570 
		CHANNELS 3 Zrotation Xrotation Yrotation
		JOINT RightKnee
		{
			OFFSET 0.000000 -0.402270 0.000000 
			CHANNELS 1 Zrotation
			JOINT RightAnkle
			{
				OFFSET 0.000000 -0.404085 0.000000 
				CHANNELS 3 Zrotation Xrotation Yrotation
				End Site
				{
					OFFSET 0.204105 -0.089430 0.008415 
				}
			}
		}
	}
	JOINT LeftHip
	{
		OFFSET 0.052140 -0.069960 -0.075570 
		CHANNELS 3 Zrotation Xrotation Yrotation
		JOINT LeftKnee
		{
			OFFSET 0.000000 -0.402270 0.000000 
			CHANNELS 1 Zrotation
			JOINT LeftAnkle
			{
				OFFSET 0.000000 -0.404085 0.000000 
				CHANNELS 3 Zrotation Xrotation Yrotation
				End Site
				{
					OFFSET 0.204105 -0.089430 -0.008415 
				}
			}
		}
	}
}
MOTION
Frames: 31
Frame Time: 0.02
0.00011 -0 -0.00014 22.34384 -29.36644 -7.33091 48.63444 2.8563 -1.2533 -11.85967 -2.46276 -1.54072 52.83555 -101.32324 55.63408 6.62223 90.20035 12.48317 -0.92211 22.46827 104.35845 -55.63248 8.88626 -86.57193 9.00311 2.00618 44.79399 -6.5021 -7.54675 -21.87447 -6.93549 -2.29393 -3.35673 48.95366 11.44153 3.43656 -27.10381 -6.99125 2.05117 3.26065
0.00016 -0 -0.00017 22.33924 -29.36886 -7.3287 48.6239 2.85446 -1.26076 -11.86633 -2.46603 -1.54091 53.0384 -101.31444 55.63408 6.59146 90.19694 12.51284 -0.89116 22.66066 104.31184 -55.63263 8.86265 -86.58054 9.08176 1.98298 44.79507 -6.50203 -7.53335 -21.87701 -6.93428 -2.28908 -3.35531 48.94866 11.454 3.49689 -27.10364 -6.99054 2.05027 3.25896
0.0002 0 -0.00021 22.33464 -29.37127 -7.32651 48.6134 2.85263 -1.26821 -11.873 -2.46929 -1.5411 53.24068 -101.30567 55.63409 6.56078 90.19359 12.5424 -0.86031 22.85251 104.26536 -55.63278 8.83913 -86.58912 9.16014 1.95984 44.79614 -6.50195 -7.52 -21.87955 -6.93307 -2.28425 -3.3539 48.94368 11.46642 3.55695 -27.10347 -6.98983 2.04938 3.25728
0.00025 0 -0.00024 22.33005 -29.37369 -7.32431 48.60289 2.85079 -1.27565 -11.87964 -2.47255 -1.54128 53.44292 -101.2969 55.63409 6.53011 90.1902 12.57197 -0.82946 23.04432 104.21889 -55.63293 8.8156 -86.5977 9.23855 1.93672 44.79721 -6.50188 -7.50663 -21.88208 -6.93185 -2.27941 -3.35248 48.9387 11.47885 3.61707 -27.1033 -6.98912 2.04848 3.25559
0.00029 0 -0.00027 22.32546 -29.3761 -7.32211 48.59234 2.84896 -1.2831 -11.88624 -2.47584 -1.54147 53.6457 -101.28812 55.6341 6.49934 90.18674 12.60165 -0.7985 23.23664 104.17229 -55.63309 8.79193 -86.6063 9.31723 1.91353 44.7983 -6.50182 -7.49325 -21.88464 -6.93064 -2.27456 -3.35106 48.93371 11.49134 3.6775 -27.10313 -6.98842 2.04757 3.25389
0.00034 0 -0.00031 22.32083 -29.37851 -7.31994 48.58195 2.84711 -1.29053 -11.89307 -2.47903 -1.54166 53.8469 -101.27933 55.6341 6.46885 90.1836 12.63098 -0.76787 23.42752 104.12608 -55.63324 8.76873 -86.61485 9.39497 1.89051 44.79933 -6.50173 -7.47996 -21.88712 -6.92943 -2.26975 -3.34965 48.92872 11.5036 3.73679 -27.10295 -6.98771 2.0467 3.25223
0.00039 1e-05 -0.00034 22.31629 -29.38093 -7.3177 48.57124 2.84529 -1.298 -11.89944 -2.48241 -1.54185 54.05107 -101.27059 55.6341 6.43784 90.17982 12.66096 -0.73663 23.62107 104.07913 -55.63339 8.74465 -86.62349 9.47451 1.86718 44.80047 -6.50169 -7.46645 -21.88974 -6.92821 -2.26488 -3.34823 48.92375 11.51631 3.79827 -27.10279 -6.987 2.04576 3.2505
0.00043 1e-05 -0.00037 22.31167 -29.38333 -7.31552 48.56082 2.84345 -1.30542 -11.90622 -2.48562 -1.54204 54.25248 -101.2618 55.6341 6.40731 90.17663 12.69035 -0.70595 23.81216 104.03285 -55.63354 8.72135 -86.63206 9.55242 1.84413 44.8015 -6.50161 -7.45322 -21.89224 -6.927 -2.26005 -3.34681 48.91875 11.52862 3.85779 -27.10262 -6.98629 2.04488 3.24884
0.00048 1e-05 -0.00041 22.30695 -29.38575 -7.31342 48.5508 2.84158 -1.31281 -11.91354 -2.48859 -1.54223 54.45071 -101.25295 55.6341 6.37733 90.1742 12.719 -0.67594 24.00036 103.98745 -55.63369 8.69912 -86.64047 9.62825 1.82143 44.80242 -6.50145 -7.44 -21.89458 -6.92579 -2.25529 -3.34542 48.91377 11.54038 3.9147 -27.10241 -6.98558 2.04407 3.24726
0.00052 1e-05 -0.00044 22.30279 -29.38818 -7.31089 48.53861 2.83986 -1.32048 -11.91791 -2.49286 -1.54242 54.66783 -101.24443 55.63413 6.3441 90.16752 12.75187 -0.64203 24.20554 103.93717 -55.63386 8.67105 -86.6496 9.71578 1.79675 44.80407 -6.50165 -7.42576 -21.89781 -6.92457 -2.25019 -3.34392 48.90884 11.55512 3.986 -27.10235 -6.98491 2.04285 3.24519
0.00057 1e-05 -0.00047 22.29744 -29.39052 -7.30926 48.53093 2.83783 -1.32752 -11.9284 -2.49441 -1.54261 54.84469 -101.23522 55.63409 6.31779 90.16973 12.77586 -0.61637 24.37464 103.89704 -55.63397 8.65513 -86.65734 9.77881 1.77625 44.80413 -6.50119 -7.41429 -21.89918 -6.92337 -2.24578 -3.34262 48.90371 11.56368 4.02731 -27.102 -6.98413 2.0425 3.24415
0.00066 3e-05 -0.00052 22.28887 -29.39308 -7.31019 48.5362 2.83489 -1.33318 -11.95647 -2.48834 -1.54281 54.91343 -101.22417 55.6338 6.31008 90.19705 12.77508 -0.61331 24.44594 103.88626 -55.63387 8.67418 -86.66025 9.77219 1.76721 44.80032 -6.498 -7.40539 -21.89503 -6.9223 -2.24358 -3.34208 48.89866 11.55429 3.98234 -27.10077 -6.98301 2.04458 3.24604
0.00075 5e-05 -0.00057 22.2791 -29.39547 -7.31202 48.54591 2.83166 -1.33817 -11.99052 -2.47957 -1.54301 54.94145 -101.21243 55.63344 6.30937 90.23318 12.76546 -0.61851 24.48084 103.88539 -55.63371 8.70514 -86.66195 9.74136 1.76238 44.79484 -6.49434 -7.40022 -21.88906 -6.92125 -2.24204 -3.3417 48.8933 11.53887 3.90794 -27.09926 -6.98178 2.04752 3.24894
0.00083 7e-05 -0.00061 22.2698 -29.39758 -7.31336 48.55319 2.82862 -1.34326 -12.02135 -2.47215 -1.54321 54.98633 -101.20099 55.63312 6.30576 90.26481 12.76017 -0.61997 24.53156 103.87901 -55.63358 8.72954 -86.6649 9.72323 1.75563 44.78981 -6.4915 -7.39662 -21.88417 -6.92017 -2.24001 -3.34109 48.88761 11.52689 3.84968 -27.09793 -6.98061 2.05003 3.25131
0.00092 9e-05 -0.00066 22.26073 -29.40111 -7.31501 48.56218 2.82534 -1.34918 -12.0544 -2.4642 -1.54341 55.03742 -101.18961 55.63276 6.30108 90.2985 12.75359 -0.62146 24.58505 103.87693 -55.63342 8.75871 -86.66494 9.69807 1.74889 44.78606 -6.48607 -7.3792 -21.87822 -6.91918 -2.23878 -3.34112 48.88378 11.51201 3.7799 -27.09636 -6.97941 2.0527 3.254
0.00101 0.00011 -0.0007 22.25101 -29.40173 -7.31626 48.5687 2.82247 -1.35326 -12.08413 -2.45672 -1.54361 55.06675 -101.17792 55.63247 6.30018 90.33007 12.74756 -0.62478 24.62439 103.86819 -55.63332 8.78092 -86.67069 9.68161 1.74314 44.77931 -6.48595 -7.39151 -21.87403 -6.918 -2.23606 -3.33988 48.87616 11.50168 3.72688 -27.09523 -6.97824 2.05523 3.25625
0.00111 0.00012 -0.00073 22.2389 -29.39349 -7.31612 48.56687 2.82111 -1.35189 -12.10405 -2.45112 -1.54379 55.03913 -101.16577 55.63243 6.30881 90.35282 12.74549 -0.63176 24.63187 103.8391 -55.63342 8.7797 -86.69298 9.69688 1.73885 44.76408 -6.50038 -7.48417 -21.87525 -6.91631 -2.22878 -3.33489 48.85699 11.50608 3.72979 -27.09541 -6.9772 2.05713 3.25701
0.00121 0.00013 -0.00075 22.22633 -29.38247 -7.31558 48.56248 2.82013 -1.34876 -12.12028 -2.4461 -1.54398 54.99235 -101.15329 55.63246 6.32081 90.37327 12.74421 -0.6402 24.62686 103.80289 -55.63359 8.7713 -86.72096 9.72146 1.73539 44.746 -6.52017 -7.60658 -21.87828 -6.91443 -2.22003 -3.32865 48.83423 11.51515 3.75018 -27.09604 -6.9762 2.05883 3.25729
0.00131 0.00014 -0.00078 22.21461 -29.37327 -7.31529 48.55959 2.8188 -1.34679 -12.13767 -2.44086 -1.54416 54.95882 -101.14086 55.63246 6.33072 90.39532 12.74247 -0.64755 24.62847 103.76962 -55.63371 8.76706 -86.746 9.74057 1.73176 44.72963 -6.53771 -7.71617 -21.8804 -6.91265 -2.21215 -3.32314 48.81393 11.52163 3.76098 -27.09646 -6.9752 2.06062 3.2578
0.00142 0.00014 -0.00081 22.20027 -29.36175 -7.31477 48.55549 2.8182 -1.34336 -12.15743 -2.43535 -1.54433 54.90458 -101.12887 55.63246 6.3433 90.41541 12.74099 -0.65695 24.62415 103.7379 -55.63388 8.7595 -86.77246 9.7639 1.72758 44.71149 -6.5546 -7.82379 -21.88282 -6.9108 -2.20348 -3.31699 48.7902 11.52987 3.77762 -27.0969 -6.97415 2.06248 3.25827
0.00151 0.00015 -0.00083 22.19115 -29.35435 -7.3146 48.55317 2.8162 -1.34247 -12.17129 -2.43057 -1.54454 54.88959 -101.11581 55.63247 6.35096 90.43885 12.73909 -0.66234 24.63057 103.70121 -55.63398 8.75692 -86.79737 9.78114 1.72443 44.69636 -6.57391 -7.94147 -21.88506 -6.90904 -2.19605 -3.31185 48.77267 11.53567 3.78674 -27.09739 -6.97319 2.06412 3.25871
0.0016 0.00015 -0.00084 22.19769 -29.35957 -7.31554 48.55707 2.81011 -1.34972 -12.16983 -2.42767 -1.54487 54.98659 -101.10077 55.63246 6.34482 90.4725 12.73735 -0.65615 24.66206 103.65194 -55.63388 8.7704 -86.81626 9.77794 1.72606 44.69029 -6.60049 -8.08865 -21.88639 -6.90759 -2.19284 -3.30997 48.774 11.53329 3.77014 -27.09789 -6.97248 2.06514 3.25925
0.00168 0.00016 -0.00085 22.20931 -29.36895 -7.31685 48.56271 2.80263 -1.35945 -12.16254 -2.42549 -1.54523 55.12409 -101.08453 55.63246 6.3335 90.50949 12.7349 -0.64587 24.70631 103.59799 -55.63372 8.78897 -86.83347 9.76857 1.72829 44.68735 -6.62899 -8.24329 -21.88747 -6.90622 -2.19087 -3.30914 48.78155 11.5284 3.7457 -27.09842 -6.97185 2.06595 3.25978
0.00176 0.00016 -0.00086 22.21787 -29.37605 -7.31798 48.56704 2.7959 -1.36759 -12.15778 -2.42298 -1.54557 55.24409 -101.0682 55.63246 6.3241 90.54464 12.73186 -0.63746 24.75004 103.54655 -55.6336 8.80476 -86.85168 9.76316 1.72879 44.68292 -6.65536 -8.38851 -21.88867 -6.90478 -2.18805 -3.30772 48.7857 11.52491 3.72543 -27.09894 -6.97118 2.06686 3.26028
0.00185 0.00016 -0.00087 22.22954 -29.38468 -7.31914 48.57339 2.7887 -1.37765 -12.15322 -2.4205 -1.54592 55.35988 -101.05442 55.63246 6.31653 90.58106 12.73279 -0.62892 24.7714 103.49325 -55.63345 8.82223 -86.86906 9.75357 1.7354 44.67864 -6.68717 -8.55996 -21.88993 -6.90345 -2.18631 -3.30669 48.79211 11.52045 3.70304 -27.09947 -6.97053 2.06772 3.26089
0.00193 0.00016 -0.00088 22.236 -29.39119 -7.32033 48.57611 2.78213 -1.38431 -12.1471 -2.41811 -1.54626 55.49391 -101.0352 55.63245 6.30404 90.61568 12.72517 -0.61983 24.84208 103.44282 -55.63333 8.83755 -86.88772 9.75063 1.72951 44.67486 -6.70812 -8.6785 -21.89096 -6.90193 -2.18271 -3.30514 48.79538 11.51739 3.68315 -27.09996 -6.96986 2.06864 3.26128
0.002 0.00017 -0.00088 22.22632 -29.39041 -7.32149 48.56739 2.77785 -1.3811 -12.13658 -2.41606 -1.54656 55.6721 -100.99998 55.63245 6.27776 90.64407 12.69507 -0.60879 25.0501 103.40138 -55.63332 8.84548 -86.91012 9.77157 1.68804 44.67161 -6.69777 -8.64597 -21.8915 -6.89975 -2.17305 -3.30171 48.78808 11.51862 3.67054 -27.10033 -6.96916 2.06983 3.26102
0.00207 0.00018 -0.00088 22.21132 -29.38745 -7.32266 48.55516 2.77423 -1.37438 -12.125 -2.41402 -1.54683 55.86664 -100.9596 55.63244 6.24696 90.67058 12.65622 -0.59757 25.30664 103.36303 -55.63335 8.85117 -86.93387 9.79866 1.63416 44.6688 -6.67654 -8.56036 -21.8918 -6.89738 -2.16158 -3.29777 48.7775 11.52135 3.6609 -27.10064 -6.96844 2.07108 3.26054
0.00214 0.00018 -0.00088 22.19906 -29.3858 -7.32383 48.54525 2.77018 -1.36919 -12.1149 -2.41179 -1.5471 56.05143 -100.92242 55.63243 6.21916 90.69828 12.6207 -0.58735 25.53816 103.32335 -55.63336 8.85803 -86.95712 9.82024 1.58655 44.66591 -6.66079 -8.50096 -21.89216 -6.89515 -2.15132 -3.2942 48.76869 11.52348 3.65084 -27.10094 -6.96771 2.07226 3.26019
0.00221 0.00019 -0.00087 22.18557 -29.38296 -7.325 48.53238 2.76662 -1.36433 -12.10035 -2.41038 -1.54742 56.24755 -100.88149 55.63242 6.18717 90.7248 12.58779 -0.57318 25.78243 103.2832 -55.63336 8.86437 -86.97986 9.85299 1.53621 44.66265 -6.64287 -8.43304 -21.89271 -6.89271 -2.13947 -3.29006 48.75891 11.52519 3.63665 -27.1014 -6.96704 2.0736 3.25971
0.00228 0.0002 -0.00088 22.17339 -29.38199 -7.32617 48.52478 2.76222 -1.35795 -12.09492 -2.40727 -1.54764 56.42327 -100.84728 55.63242 6.16294 90.75313 12.54751 -0.56718 26.01177 103.24483 -55.63339 8.87125 -87.00401 9.86413 1.48872 44.66016 -6.62684 -8.37012 -21.8928 -6.89067 -2.1305 -3.28698 48.75027 11.52815 3.63181 -27.10152 -6.96625 2.07461 3.25943
